# xmcd
#
# Track frame offsets:
#	150
#	13560
#	28635
#	45007
#	59403
#	76242
#	92295
#	105099
#	120454
#	133662
#	144301
#	159246
#
# Disc length: 2356 seconds
#
# Revision: 1
# Processed by: cddbd v1.4PL0 Copyright (c) Steve Scherf et al.
# Submitted via: audiograbber 1.80.04
#
DISCID=7a09320c
DTITLE=Jerry Kilgore - Love Trip
DYEAR=1900
DGENRE=Country
TTITLE0=I just want my baby back
TTITLE1=Love trip
TTITLE2=The more I love you
TTITLE3=All i've got to say
TTITLE4=It's dangerous with you on my mind
TTITLE5=Don't tell me you're not in love
TTITLE6=All hell's breakin' loose
TTITLE7=The look
TTITLE8=If a man ain't thinking ('bout his woman)
TTITLE9=Lonesome love list
TTITLE10=The real thing
TTITLE11=Cactus in a coffee can
EXTD=
EXTT0=
EXTT1=
EXTT2=
EXTT3=
EXTT4=
EXTT5=
EXTT6=
EXTT7=
EXTT8=
EXTT9=
EXTT10=
EXTT11=
PLAYORDER=
